<?xml version="1.0" encoding="UTF-8" standalone="no"?><svg xmlns="http://www.w3.org/2000/svg" xmlns:xlink="http://www.w3.org/1999/xlink" contentScriptType="application/ecmascript" contentStyleType="text/css" height="107px" preserveAspectRatio="none" style="width:483px;height:107px;" version="1.1" viewBox="0 0 483 107" width="483px" zoomAndPan="magnify"><defs/><g><!--entity _index--><rect fill="#F8F8F8" height="34.4844" rx="2" ry="2" style="stroke: #000000; stroke-width: 0.8;" width="53" x="212.5" y="8"/><text fill="#000000" font-family="Tahoma, sans-serif" font-size="12" font-weight="bold" lengthAdjust="spacingAndGlyphs" textLength="33" x="222.5" y="30.0059">index</text><!--entity _Pan--><rect fill="#F8F8F8" height="34.4844" rx="2" ry="2" style="stroke: #000000; stroke-width: 0.8;" width="40" x="6" y="62"/><text fill="#000000" font-family="Tahoma, sans-serif" font-size="12" lengthAdjust="spacingAndGlyphs" textLength="20" x="16" y="84.0059">Pan</text><!--entity _Pinch--><rect fill="#F8F8F8" height="34.4844" rx="2" ry="2" style="stroke: #000000; stroke-width: 0.8;" width="49" x="66.5" y="62"/><text fill="#000000" font-family="Tahoma, sans-serif" font-size="12" lengthAdjust="spacingAndGlyphs" textLength="29" x="76.5" y="84.0059">Pinch</text><!--entity _Rotate--><rect fill="#F8F8F8" height="34.4844" rx="2" ry="2" style="stroke: #000000; stroke-width: 0.8;" width="57" x="135.5" y="62"/><text fill="#000000" font-family="Tahoma, sans-serif" font-size="12" lengthAdjust="spacingAndGlyphs" textLength="37" x="145.5" y="84.0059">Rotate</text><!--entity _Swipe--><rect fill="#F8F8F8" height="34.4844" rx="2" ry="2" style="stroke: #000000; stroke-width: 0.8;" width="53" x="212.5" y="62"/><text fill="#000000" font-family="Tahoma, sans-serif" font-size="12" lengthAdjust="spacingAndGlyphs" textLength="33" x="222.5" y="84.0059">Swipe</text><!--entity _Swivel--><rect fill="#F8F8F8" height="34.4844" rx="2" ry="2" style="stroke: #000000; stroke-width: 0.8;" width="54" x="286" y="62"/><text fill="#000000" font-family="Tahoma, sans-serif" font-size="12" lengthAdjust="spacingAndGlyphs" textLength="34" x="296" y="84.0059">Swivel</text><!--entity _Tap--><rect fill="#F8F8F8" height="34.4844" rx="2" ry="2" style="stroke: #000000; stroke-width: 0.8;" width="41" x="360.5" y="62"/><text fill="#000000" font-family="Tahoma, sans-serif" font-size="12" lengthAdjust="spacingAndGlyphs" textLength="21" x="370.5" y="84.0059">Tap</text><!--entity _Track--><rect fill="#F8F8F8" height="34.4844" rx="2" ry="2" style="stroke: #000000; stroke-width: 0.8;" width="50" x="422" y="62"/><text fill="#000000" font-family="Tahoma, sans-serif" font-size="12" lengthAdjust="spacingAndGlyphs" textLength="30" x="432" y="84.0059">Track</text><!--link _index to _Pan--><path d="M212.2126,27.7326 C175.8966,32.0341 109.4408,42.0357 56,62 C54.2721,62.6455 52.5255,63.3819 50.7898,64.178 " fill="none" id="_index-_Pan" style="stroke: #383838; stroke-width: 2.0;"/><polygon fill="#383838" points="46.2409,66.4031,56.0831,66.0416,50.7324,64.2061,52.5679,58.8553,46.2409,66.4031" style="stroke: #383838; stroke-width: 2.0;"/><!--link _index to _Pinch--><path d="M212.3346,32.4225 C188.9699,39.2159 154.2683,50.0122 125,62 C123.4732,62.6253 121.9204,63.2907 120.3612,63.9822 " fill="none" id="_index-_Pinch" style="stroke: #383838; stroke-width: 2.0;"/><polygon fill="#383838" points="115.6839,66.1217,125.5322,66.0152,120.2307,64.0417,122.2042,58.7403,115.6839,66.1217" style="stroke: #383838; stroke-width: 2.0;"/><!--link _index to _Rotate--><path d="M215.2695,42.0859 C207.8827,47.4044 199.6682,53.3189 192.0172,58.8276 " fill="none" id="_index-_Rotate" style="stroke: #383838; stroke-width: 2.0;"/><polygon fill="#383838" points="187.8335,61.8399,197.4745,59.8273,191.8912,58.9184,192.8001,53.335,187.8335,61.8399" style="stroke: #383838; stroke-width: 2.0;"/><!--link _index to _Swipe--><path d="M239,42.0859 C239,46.715 239,51.7956 239,56.6671 " fill="none" id="_index-_Swipe" style="stroke: #383838; stroke-width: 2.0;"/><polygon fill="#383838" points="239,61.8399,243,52.8399,239,56.8399,235,52.8399,239,61.8399" style="stroke: #383838; stroke-width: 2.0;"/><!--link _index to _Swivel--><path d="M262.4141,42.0859 C269.7024,47.4044 277.8074,53.3189 285.3563,58.8276 " fill="none" id="_index-_Swivel" style="stroke: #383838; stroke-width: 2.0;"/><polygon fill="#383838" points="289.4843,61.8399,284.5721,53.3035,285.4454,58.8925,279.8563,59.7658,289.4843,61.8399" style="stroke: #383838; stroke-width: 2.0;"/><!--link _index to _Tap--><path d="M265.5152,32.373 C288.3221,39.0588 321.8897,49.7263 350,62 C351.8985,62.8289 353.8353,63.7348 355.7671,64.6829 " fill="none" id="_index-_Tap" style="stroke: #383838; stroke-width: 2.0;"/><polygon fill="#383838" points="360.2458,66.9553,354.03,59.3157,355.787,64.6928,350.4099,66.4498,360.2458,66.9553" style="stroke: #383838; stroke-width: 2.0;"/><!--link _index to _Track--><path d="M265.6212,28.6488 C300.0599,33.829 361.6113,44.6603 412,62 C413.5969,62.5495 415.2157,63.1538 416.8369,63.797 " fill="none" id="_index-_Track" style="stroke: #383838; stroke-width: 2.0;"/><polygon fill="#383838" points="421.6881,65.8272,414.9298,58.663,417.0757,63.8971,411.8416,66.0429,421.6881,65.8272" style="stroke: #383838; stroke-width: 2.0;"/><script type="text/plantuml"><![CDATA[
@startuml

scale max 1920 width
top to bottom direction

skinparam monochrome true
skinparam shadowing false
skinparam nodesep 20
skinparam ranksep 20
skinparam defaultFontName Tahoma
skinparam defaultFontSize 12
skinparam roundCorner 4
skinparam dpi 150
skinparam arrowThickness 0.7
skinparam packageTitleAlignment left

skinparam usecase {
  borderThickness 0.4
  fontSize 12
}

skinparam rectangle {
  borderThickness 0.8
}

skinparam component {
  borderThickness 1.2
}


rectangle "<b>index</b>" as _index
rectangle "Pan" as _Pan
rectangle "Pinch" as _Pinch
rectangle "Rotate" as _Rotate
rectangle "Swipe" as _Swipe
rectangle "Swivel" as _Swivel
rectangle "Tap" as _Tap
rectangle "Track" as _Track

_index ==> _Pan
_index ==> _Pinch
_index ==> _Rotate
_index ==> _Swipe
_index ==> _Swivel
_index ==> _Tap
_index ==> _Track

@enduml


' View and edit on https://arkit.herokuapp.com
]]></script></g></svg>