<?xml version="1.0" encoding="UTF-8" standalone="no"?><svg xmlns="http://www.w3.org/2000/svg" xmlns:xlink="http://www.w3.org/1999/xlink" contentScriptType="application/ecmascript" contentStyleType="text/css" height="224px" preserveAspectRatio="none" style="width:473px;height:224px;" version="1.1" viewBox="0 0 473 224" width="473px" zoomAndPan="magnify"><defs/><g><!--cluster Gestures--><path d="M25,35 L85,35 A4.5,4.5 0 0 1 88,38 L95,55.4844 L458,55.4844 A3,3 0 0 1 461,58.4844 L461,209 A3,3 0 0 1 458,212 L25,212 A3,3 0 0 1 22,209 L22,38 A3,3 0 0 1 25,35 " fill="#FFFFFF" style="stroke: #000000; stroke-width: 1.5;"/><line style="stroke: #000000; stroke-width: 1.5;" x1="22" x2="95" y1="55.4844" y2="55.4844"/><text fill="#000000" font-family="Tahoma, sans-serif" font-size="12" font-weight="bold" lengthAdjust="spacingAndGlyphs" textLength="60" x="26" y="49.0059">Gestures</text><ellipse cx="57.9706" cy="81.242" fill="#F8F8F8" rx="19.9706" ry="13.242" style="stroke: #383838; stroke-width: 0.5;"/><text fill="#000000" font-family="Tahoma, sans-serif" font-size="12" font-weight="bold" lengthAdjust="spacingAndGlyphs" textLength="24" x="45.9706" y="84.9842">Pan</text><ellipse cx="119.9558" cy="81.242" fill="#F8F8F8" rx="28.4558" ry="13.242" style="stroke: #383838; stroke-width: 0.5;"/><text fill="#000000" font-family="Tahoma, sans-serif" font-size="12" font-weight="bold" lengthAdjust="spacingAndGlyphs" textLength="36" x="101.9558" y="84.9842">Pinch</text><ellipse cx="404.7696" cy="81.242" fill="#F8F8F8" rx="39.7696" ry="13.242" style="stroke: #383838; stroke-width: 0.5;"/><text fill="#000000" font-family="Tahoma, sans-serif" font-size="12" lengthAdjust="spacingAndGlyphs" textLength="52" x="378.7696" y="84.9842">Pivotable</text><ellipse cx="191.163" cy="81.242" fill="#F8F8F8" rx="29.163" ry="13.242" style="stroke: #383838; stroke-width: 0.5;"/><text fill="#000000" font-family="Tahoma, sans-serif" font-size="12" font-weight="bold" lengthAdjust="spacingAndGlyphs" textLength="37" x="172.663" y="84.9842">Press</text><ellipse cx="331.9706" cy="81.242" fill="#F8F8F8" rx="19.9706" ry="13.242" style="stroke: #383838; stroke-width: 0.5;"/><text fill="#000000" font-family="Tahoma, sans-serif" font-size="12" font-weight="bold" lengthAdjust="spacingAndGlyphs" textLength="24" x="319.9706" y="84.9842">Pull</text><ellipse cx="71.9056" cy="132.242" fill="#F8F8F8" rx="33.4056" ry="13.242" style="stroke: #383838; stroke-width: 0.5;"/><text fill="#000000" font-family="Tahoma, sans-serif" font-size="12" font-weight="bold" lengthAdjust="spacingAndGlyphs" textLength="43" x="50.4056" y="135.9842">Rotate</text><ellipse cx="149.0772" cy="132.242" fill="#F8F8F8" rx="30.5772" ry="13.242" style="stroke: #383838; stroke-width: 0.5;"/><text fill="#000000" font-family="Tahoma, sans-serif" font-size="12" font-weight="bold" lengthAdjust="spacingAndGlyphs" textLength="39" x="129.5772" y="135.9842">Swipe</text><ellipse cx="266.1985" cy="81.242" fill="#F8F8F8" rx="32.6985" ry="13.242" style="stroke: #383838; stroke-width: 0.5;"/><text fill="#000000" font-family="Tahoma, sans-serif" font-size="12" font-weight="bold" lengthAdjust="spacingAndGlyphs" textLength="42" x="245.1985" y="84.9842">Swivel</text><ellipse cx="212.9706" cy="132.242" fill="#F8F8F8" rx="19.9706" ry="13.242" style="stroke: #383838; stroke-width: 0.5;"/><text fill="#000000" font-family="Tahoma, sans-serif" font-size="12" font-weight="bold" lengthAdjust="spacingAndGlyphs" textLength="24" x="200.9706" y="135.9842">Tap</text><ellipse cx="71.9558" cy="183.242" fill="#F8F8F8" rx="28.4558" ry="13.242" style="stroke: #383838; stroke-width: 0.5;"/><text fill="#000000" font-family="Tahoma, sans-serif" font-size="12" font-weight="bold" lengthAdjust="spacingAndGlyphs" textLength="36" x="53.9558" y="186.9842">Track</text><!--link <b>Pull</b> to Pivotable--><path d="M352.246,81 C354.693,81 357.14,81 359.587,81 " fill="none" id="&lt;b&gt;Pull&lt;/b&gt;-Pivotable" style="stroke: #000000; stroke-width: 1.0; stroke-dasharray: 7.0,7.0;"/><polygon fill="#000000" points="364.61,81,355.61,77,359.61,81,355.61,85,364.61,81" style="stroke: #000000; stroke-width: 1.0;"/><!--link <b>Swivel</b> to Pivotable--><path d="M270.678,68.113 C277.249,52.171 290.886,25.761 312.5,14.5 C328.266,6.286 336.502,6.747 352.5,14.5 C373.253,24.557 388.278,47.238 396.807,63.308 " fill="none" id="&lt;b&gt;Swivel&lt;/b&gt;-Pivotable" style="stroke: #000000; stroke-width: 1.0; stroke-dasharray: 7.0,7.0;"/><polygon fill="#000000" points="399.244,68.061,398.6975,58.2273,396.9629,63.6117,391.5786,61.8771,399.244,68.061" style="stroke: #000000; stroke-width: 1.0;"/><!--link <b>Pan</b> to <b>Pinch</b>--><!--link <b>Pinch</b> to <b>Press</b>--><!--link <b>Pan</b> to <b>Rotate</b>--><!--link <b>Rotate</b> to <b>Swipe</b>--><!--link <b>Swipe</b> to <b>Tap</b>--><!--link <b>Rotate</b> to <b>Track</b>--><script type="text/plantuml"><![CDATA[
@startuml

scale max 1920 width
top to bottom direction

skinparam nodesep 13
skinparam ranksep 25
skinparam monochrome true
skinparam shadowing false
skinparam defaultFontName Tahoma
skinparam defaultFontSize 12
skinparam roundCorner 6
skinparam dpi 150
skinparam arrowColor black
skinparam arrowThickness 0.5
skinparam packageTitleAlignment left

skinparam usecase {
  borderThickness 0.5
}

skinparam rectangle {
  borderThickness 0.5
}

skinparam component {
  borderThickness 1
}



package "Gestures" {
  (<b>Pan</b>)
  (<b>Pinch</b>)
  (Pivotable)
  (<b>Press</b>)
  (<b>Pull</b>)
  (<b>Rotate</b>)
  (<b>Swipe</b>)
  (<b>Swivel</b>)
  (<b>Tap</b>)
  (<b>Track</b>)
}

(<b>Pull</b>) .[thickness=1]> (Pivotable)
(<b>Swivel</b>) .[thickness=1]> (Pivotable)

@enduml


' View and edit on https://arkit.pro
]]></script></g></svg>