<?xml version="1.0" encoding="UTF-8" standalone="no"?><svg xmlns="http://www.w3.org/2000/svg" xmlns:xlink="http://www.w3.org/1999/xlink" contentScriptType="application/ecmascript" contentStyleType="text/css" height="180px" preserveAspectRatio="none" style="width:606px;height:180px;" version="1.1" viewBox="0 0 606 180" width="606px" zoomAndPan="magnify"><defs/><g><!--cluster Gestures--><path d="M80.5,41 L140.5,41 A4.5,4.5 0 0 1 143.5,44 L150.5,61.4844 L591.5,61.4844 A3,3 0 0 1 594.5,64.4844 L594.5,165 A3,3 0 0 1 591.5,168 L80.5,168 A3,3 0 0 1 77.5,165 L77.5,44 A3,3 0 0 1 80.5,41 " fill="#FFFFFF" style="stroke: #000000; stroke-width: 1.5;"/><line style="stroke: #000000; stroke-width: 1.5;" x1="77.5" x2="150.5" y1="61.4844" y2="61.4844"/><text fill="#000000" font-family="Tahoma, sans-serif" font-size="12" font-weight="bold" lengthAdjust="spacingAndGlyphs" textLength="60" x="81.5" y="55.0059">Gestures</text><ellipse cx="303.6295" cy="138.4259" fill="#F8F8F8" rx="55.1295" ry="13.4259" style="stroke: #383838; stroke-width: 0.5;"/><text fill="#000000" font-family="Tahoma, sans-serif" font-size="12" lengthAdjust="spacingAndGlyphs" textLength="75" x="266.1295" y="142.1681">angularMinus</text><ellipse cx="560.3492" cy="87.242" fill="#F8F8F8" rx="17.8492" ry="13.242" style="stroke: #383838; stroke-width: 0.5;"/><text fill="#000000" font-family="Tahoma, sans-serif" font-size="12" lengthAdjust="spacingAndGlyphs" textLength="21" x="549.8492" y="90.9842">Pan</text><ellipse cx="504.4203" cy="87.242" fill="#F8F8F8" rx="24.9203" ry="13.242" style="stroke: #383838; stroke-width: 0.5;"/><text fill="#000000" font-family="Tahoma, sans-serif" font-size="12" lengthAdjust="spacingAndGlyphs" textLength="31" x="488.9203" y="90.9842">Pinch</text><ellipse cx="440.6274" cy="87.242" fill="#F8F8F8" rx="25.6274" ry="13.242" style="stroke: #383838; stroke-width: 0.5;"/><text fill="#000000" font-family="Tahoma, sans-serif" font-size="12" lengthAdjust="spacingAndGlyphs" textLength="32" x="424.6274" y="90.9842">Press</text><ellipse cx="372.663" cy="87.242" fill="#F8F8F8" rx="29.163" ry="13.242" style="stroke: #383838; stroke-width: 0.5;"/><text fill="#000000" font-family="Tahoma, sans-serif" font-size="12" lengthAdjust="spacingAndGlyphs" textLength="37" x="354.163" y="90.9842">Rotate</text><ellipse cx="303.5416" cy="87.242" fill="#F8F8F8" rx="27.0416" ry="13.242" style="stroke: #383838; stroke-width: 0.5;"/><text fill="#000000" font-family="Tahoma, sans-serif" font-size="12" lengthAdjust="spacingAndGlyphs" textLength="34" x="286.5416" y="90.9842">Swipe</text><ellipse cx="234.4558" cy="87.242" fill="#F8F8F8" rx="28.4558" ry="13.242" style="stroke: #383838; stroke-width: 0.5;"/><text fill="#000000" font-family="Tahoma, sans-serif" font-size="12" lengthAdjust="spacingAndGlyphs" textLength="36" x="216.4558" y="90.9842">Swivel</text><ellipse cx="174.3492" cy="87.242" fill="#F8F8F8" rx="17.8492" ry="13.242" style="stroke: #383838; stroke-width: 0.5;"/><text fill="#000000" font-family="Tahoma, sans-serif" font-size="12" lengthAdjust="spacingAndGlyphs" textLength="21" x="163.8492" y="90.9842">Tap</text><ellipse cx="118.4203" cy="87.242" fill="#F8F8F8" rx="24.9203" ry="13.242" style="stroke: #383838; stroke-width: 0.5;"/><text fill="#000000" font-family="Tahoma, sans-serif" font-size="12" lengthAdjust="spacingAndGlyphs" textLength="31" x="102.9203" y="90.9842">Track</text><ellipse cx="33.7487" cy="87.242" fill="#F8F8F8" rx="27.7487" ry="13.242" style="stroke: #383838; stroke-width: 0.5;"/><text fill="#000000" font-family="Tahoma, sans-serif" font-size="12" font-weight="bold" lengthAdjust="spacingAndGlyphs" textLength="35" x="16.2487" y="90.9842">index</text><!--link <b>index</b> to Pan--><path d="M39.6403,74.316 C48.178,58.326 65.3007,31.589 89,20.5 C111.191,10.116 509.057,7.785 530,20.5 C546.778,30.686 554.414,52.806 557.831,68.741 " fill="none" id="&lt;b&gt;index&lt;/b&gt;-Pan" style="stroke: #000000; stroke-width: 1.0;"/><polygon fill="#000000" points="558.835,73.881,561.0326,64.2805,557.875,68.974,553.1815,65.8164,558.835,73.881" style="stroke: #000000; stroke-width: 1.0;"/><!--link <b>index</b> to Pinch--><path d="M39.6403,74.316 C48.178,58.326 65.3007,31.589 89,20.5 C107.97,11.623 447.855,10.039 466,20.5 C483.859,30.797 494.186,52.894 499.567,68.793 " fill="none" id="&lt;b&gt;index&lt;/b&gt;-Pinch" style="stroke: #000000; stroke-width: 1.0;"/><polygon fill="#000000" points="501.205,73.921,502.2767,64.1306,499.6836,69.1581,494.6561,66.5649,501.205,73.921" style="stroke: #000000; stroke-width: 1.0;"/><!--link <b>index</b> to Press--><path d="M39.6403,74.316 C48.178,58.326 65.3007,31.589 89,20.5 C120.5,5.76 371.871,3.129 402,20.5 C419.859,30.797 430.186,52.894 435.567,68.793 " fill="none" id="&lt;b&gt;index&lt;/b&gt;-Press" style="stroke: #000000; stroke-width: 1.0;"/><polygon fill="#000000" points="437.205,73.921,438.2767,64.1306,435.6836,69.1581,430.6561,66.5649,437.205,73.921" style="stroke: #000000; stroke-width: 1.0;"/><!--link <b>index</b> to Rotate--><path d="M39.6403,74.316 C48.178,58.326 65.3007,31.589 89,20.5 C113.355,9.104 307.486,7.457 331,20.5 C349.55,30.79 360.896,53.203 366.934,69.162 " fill="none" id="&lt;b&gt;index&lt;/b&gt;-Rotate" style="stroke: #000000; stroke-width: 1.0;"/><polygon fill="#000000" points="368.639,73.887,369.3438,64.0634,366.9405,69.1843,361.8196,66.781,368.639,73.887" style="stroke: #000000; stroke-width: 1.0;"/><!--link <b>index</b> to Swipe--><path d="M39.6403,74.316 C48.178,58.326 65.3007,31.589 89,20.5 C106.511,12.306 246.145,11.03 263,20.5 C281.212,30.732 292.194,52.842 298.039,68.762 " fill="none" id="&lt;b&gt;index&lt;/b&gt;-Swipe" style="stroke: #000000; stroke-width: 1.0;"/><polygon fill="#000000" points="299.827,73.898,300.6454,64.0832,298.183,69.176,293.0902,66.7136,299.827,73.898" style="stroke: #000000; stroke-width: 1.0;"/><!--link <b>index</b> to Swivel--><path d="M39.6403,74.316 C48.178,58.326 65.3007,31.589 89,20.5 C109.933,10.705 172.79,9.29 193,20.5 C211.55,30.79 222.896,53.203 228.934,69.162 " fill="none" id="&lt;b&gt;index&lt;/b&gt;-Swivel" style="stroke: #000000; stroke-width: 1.0;"/><polygon fill="#000000" points="230.639,73.887,231.3438,64.0634,228.9405,69.1843,223.8196,66.781,230.639,73.887" style="stroke: #000000; stroke-width: 1.0;"/><!--link <b>index</b> to Tap--><path d="M39.6403,74.316 C48.178,58.326 65.3007,31.589 89,20.5 C111.14,10.14 123.105,7.814 144,20.5 C160.778,30.686 168.414,52.806 171.831,68.741 " fill="none" id="&lt;b&gt;index&lt;/b&gt;-Tap" style="stroke: #000000; stroke-width: 1.0;"/><polygon fill="#000000" points="172.835,73.881,175.0326,64.2805,171.875,68.974,167.1815,65.8164,172.835,73.881" style="stroke: #000000; stroke-width: 1.0;"/><!--link <b>index</b> to Track--><path d="M61.0586,87 C70.146,87 79.2334,87 88.3208,87 " fill="none" id="&lt;b&gt;index&lt;/b&gt;-Track" style="stroke: #000000; stroke-width: 1.0;"/><polygon fill="#000000" points="93.3694,87,84.3694,83,88.3694,87,84.3694,91,93.3694,87" style="stroke: #000000; stroke-width: 1.0;"/><!--link Rotate to angularMinus--><path d="M357.867,98.4977 C348.228,105.4125 335.451,114.5789 324.705,122.2878 " fill="none" id="Rotate-angularMinus" style="stroke: #000000; stroke-width: 0.5; stroke-dasharray: 7.0,7.0;"/><polygon fill="#000000" points="320.545,125.272,330.1896,123.2764,324.6078,122.3576,325.5266,116.7759,320.545,125.272" style="stroke: #000000; stroke-width: 0.5;"/><!--link Swivel to angularMinus--><path d="M248.797,98.2564 C258.554,105.2563 271.641,114.6443 282.567,122.483 " fill="none" id="Swivel-angularMinus" style="stroke: #000000; stroke-width: 0.5; stroke-dasharray: 7.0,7.0;"/><polygon fill="#000000" points="286.792,125.5135,281.8104,117.0174,282.7292,122.5991,277.1474,123.5179,286.792,125.5135" style="stroke: #000000; stroke-width: 0.5;"/><script type="text/plantuml"><![CDATA[
@startuml

scale max 1920 width
top to bottom direction

skinparam nodesep 13
skinparam ranksep 25
skinparam monochrome true
skinparam shadowing false
skinparam defaultFontName Tahoma
skinparam defaultFontSize 12
skinparam roundCorner 6
skinparam dpi 150
skinparam arrowColor black
skinparam arrowThickness 0.5
skinparam packageTitleAlignment left

skinparam usecase {
  borderThickness 0.5
}

skinparam rectangle {
  borderThickness 0.5
}

skinparam component {
  borderThickness 1
}


(<b>index</b>)

package "Gestures" {
  (angularMinus)
  (Pan)
  (Pinch)
  (Press)
  (Rotate)
  (Swipe)
  (Swivel)
  (Tap)
  (Track)
}

(<b>index</b>) -[thickness=1]> (Pan)
(<b>index</b>) -[thickness=1]> (Pinch)
(<b>index</b>) -[thickness=1]> (Press)
(<b>index</b>) -[thickness=1]> (Rotate)
(<b>index</b>) -[thickness=1]> (Swipe)
(<b>index</b>) -[thickness=1]> (Swivel)
(<b>index</b>) -[thickness=1]> (Tap)
(<b>index</b>) -[thickness=1]> (Track)
(Rotate) ..> (angularMinus)
(Swivel) ..> (angularMinus)

@enduml


' View and edit on https://arkit.pro
]]></script></g></svg>