<?xml version="1.0" encoding="UTF-8" standalone="no"?><svg xmlns="http://www.w3.org/2000/svg" xmlns:xlink="http://www.w3.org/1999/xlink" contentScriptType="application/ecmascript" contentStyleType="text/css" height="121px" preserveAspectRatio="none" style="width:505px;height:121px;" version="1.1" viewBox="0 0 505 121" width="505px" zoomAndPan="magnify"><defs/><g><ellipse cx="33.7487" cy="45.242" fill="#F8F8F8" rx="27.7487" ry="13.242" style="stroke: #383838; stroke-width: 0.5;"/><text fill="#000000" font-family="Tahoma, sans-serif" font-size="12" font-weight="bold" lengthAdjust="spacingAndGlyphs" textLength="35" x="16.2487" y="48.9842">index</text><ellipse cx="284.6295" cy="97.4259" fill="#F8F8F8" rx="55.1295" ry="13.4259" style="stroke: #383838; stroke-width: 0.5;"/><text fill="#000000" font-family="Tahoma, sans-serif" font-size="12" lengthAdjust="spacingAndGlyphs" textLength="75" x="247.1295" y="101.1681">angularMinus</text><ellipse cx="476.3492" cy="45.242" fill="#F8F8F8" rx="17.8492" ry="13.242" style="stroke: #383838; stroke-width: 0.5;"/><text fill="#000000" font-family="Tahoma, sans-serif" font-size="12" lengthAdjust="spacingAndGlyphs" textLength="21" x="465.8492" y="48.9842">Pan</text><ellipse cx="420.4203" cy="45.242" fill="#F8F8F8" rx="24.9203" ry="13.242" style="stroke: #383838; stroke-width: 0.5;"/><text fill="#000000" font-family="Tahoma, sans-serif" font-size="12" lengthAdjust="spacingAndGlyphs" textLength="31" x="404.9203" y="48.9842">Pinch</text><ellipse cx="353.663" cy="45.242" fill="#F8F8F8" rx="29.163" ry="13.242" style="stroke: #383838; stroke-width: 0.5;"/><text fill="#000000" font-family="Tahoma, sans-serif" font-size="12" lengthAdjust="spacingAndGlyphs" textLength="37" x="335.163" y="48.9842">Rotate</text><ellipse cx="284.5416" cy="45.242" fill="#F8F8F8" rx="27.0416" ry="13.242" style="stroke: #383838; stroke-width: 0.5;"/><text fill="#000000" font-family="Tahoma, sans-serif" font-size="12" lengthAdjust="spacingAndGlyphs" textLength="34" x="267.5416" y="48.9842">Swipe</text><ellipse cx="215.4558" cy="45.242" fill="#F8F8F8" rx="28.4558" ry="13.242" style="stroke: #383838; stroke-width: 0.5;"/><text fill="#000000" font-family="Tahoma, sans-serif" font-size="12" lengthAdjust="spacingAndGlyphs" textLength="36" x="197.4558" y="48.9842">Swivel</text><ellipse cx="155.3492" cy="45.242" fill="#F8F8F8" rx="17.8492" ry="13.242" style="stroke: #383838; stroke-width: 0.5;"/><text fill="#000000" font-family="Tahoma, sans-serif" font-size="12" lengthAdjust="spacingAndGlyphs" textLength="21" x="144.8492" y="48.9842">Tap</text><ellipse cx="99.4203" cy="45.242" fill="#F8F8F8" rx="24.9203" ry="13.242" style="stroke: #383838; stroke-width: 0.5;"/><text fill="#000000" font-family="Tahoma, sans-serif" font-size="12" lengthAdjust="spacingAndGlyphs" textLength="31" x="83.9203" y="48.9842">Track</text><!--link <b>index</b> to Pan--><path d="M47.5138,33.4415 C55.1385,27.9041 65.031,21.8649 75,19 C114.619,7.614 407.319,4.75 446,19 C452.325,21.3301 458.231,25.6198 463.129,30.0525 " fill="none" id="&lt;b&gt;index&lt;/b&gt;-Pan" style="stroke: #000000; stroke-width: 1.0;"/><polygon fill="#000000" points="466.993,33.7697,463.2808,24.6472,463.3899,30.303,457.7341,30.4122,466.993,33.7697" style="stroke: #000000; stroke-width: 1.0;"/><!--link <b>index</b> to Pinch--><path d="M47.5138,33.4415 C55.1385,27.9041 65.031,21.8649 75,19 C107.891,9.548 350.338,8.785 383,19 C390.495,21.3441 397.808,25.771 403.956,30.3164 " fill="none" id="&lt;b&gt;index&lt;/b&gt;-Pinch" style="stroke: #000000; stroke-width: 1.0;"/><polygon fill="#000000" points="408.015,33.458,403.3457,24.7863,404.0609,30.3978,398.4494,31.1129,408.015,33.458" style="stroke: #000000; stroke-width: 1.0;"/><!--link <b>index</b> to Rotate--><path d="M47.5138,33.4415 C55.1385,27.9041 65.031,21.8649 75,19 C125.618,4.453 261.382,4.453 312,19 C320.256,21.3725 328.459,25.9219 335.365,30.5605 " fill="none" id="&lt;b&gt;index&lt;/b&gt;-Rotate" style="stroke: #000000; stroke-width: 1.0;"/><polygon fill="#000000" points="339.486,33.4415,334.4008,25.007,335.3878,30.5771,329.8177,31.5641,339.486,33.4415" style="stroke: #000000; stroke-width: 1.0;"/><!--link <b>index</b> to Swipe--><path d="M47.5138,33.4415 C55.1385,27.9041 65.031,21.8649 75,19 C111.095,8.627 207.963,8.428 244,19 C251.947,21.3315 259.812,25.7556 266.467,30.3022 " fill="none" id="&lt;b&gt;index&lt;/b&gt;-Swipe" style="stroke: #000000; stroke-width: 1.0;"/><polygon fill="#000000" points="270.867,33.4452,265.8698,24.9583,266.7988,30.5383,261.2188,31.4674,270.867,33.4452" style="stroke: #000000; stroke-width: 1.0;"/><!--link <b>index</b> to Swivel--><path d="M47.5138,33.4415 C55.1385,27.9041 65.031,21.8649 75,19 C117.288,6.847 131.712,6.847 174,19 C182.256,21.3725 190.459,25.9219 197.365,30.5605 " fill="none" id="&lt;b&gt;index&lt;/b&gt;-Swivel" style="stroke: #000000; stroke-width: 1.0;"/><polygon fill="#000000" points="201.486,33.4415,196.4008,25.007,197.3878,30.5771,191.8177,31.5641,201.486,33.4415" style="stroke: #000000; stroke-width: 1.0;"/><!--link <b>index</b> to Tap--><path d="M47.5138,33.4415 C55.1385,27.9041 65.031,21.8649 75,19 C96.3578,12.8622 104.1477,11.3183 125,19 C131.325,21.3301 137.231,25.6198 142.129,30.0525 " fill="none" id="&lt;b&gt;index&lt;/b&gt;-Tap" style="stroke: #000000; stroke-width: 1.0;"/><polygon fill="#000000" points="145.993,33.7697,142.2808,24.6472,142.3899,30.303,136.7341,30.4122,145.993,33.7697" style="stroke: #000000; stroke-width: 1.0;"/><!--link <b>index</b> to Track--><path d="M61.0859,45 C63.6994,45 66.3129,45 68.9263,45 " fill="none" id="&lt;b&gt;index&lt;/b&gt;-Track" style="stroke: #000000; stroke-width: 1.0;"/><polygon fill="#000000" points="74.2908,45,65.2908,41,69.2908,45,65.2908,49,74.2908,45" style="stroke: #000000; stroke-width: 1.0;"/><!--link Rotate to angularMinus--><path d="M339.203,56.4636 C329.446,63.6049 316.359,73.1826 305.433,81.1796 " fill="none" id="Rotate-angularMinus" style="stroke: #000000; stroke-width: 0.55;"/><polygon fill="#000000" points="301.208,84.2713,310.8331,82.184,305.2429,81.3184,306.1085,75.7282,301.208,84.2713" style="stroke: #000000; stroke-width: 0.55;"/><!--link Swivel to angularMinus--><path d="M229.797,56.4636 C239.554,63.6049 252.641,73.1826 263.567,81.1796 " fill="none" id="Swivel-angularMinus" style="stroke: #000000; stroke-width: 0.55;"/><polygon fill="#000000" points="267.792,84.2713,262.8915,75.7282,263.7571,81.3184,258.1669,82.184,267.792,84.2713" style="stroke: #000000; stroke-width: 0.55;"/><script type="text/plantuml"><![CDATA[
@startuml

scale max 1920 width
top to bottom direction

skinparam nodesep 13
skinparam ranksep 26
skinparam monochrome true
skinparam shadowing false
skinparam defaultFontName Tahoma
skinparam defaultFontSize 12
skinparam roundCorner 4
skinparam dpi 150
skinparam arrowColor black
skinparam arrowThickness 0.55
skinparam packageTitleAlignment left

skinparam usecase {
  borderThickness 0.5
}

skinparam rectangle {
  borderThickness 0.5
}

skinparam component {
  borderThickness 1
}


(<b>index</b>)
(angularMinus)
(Pan)
(Pinch)
(Rotate)
(Swipe)
(Swivel)
(Tap)
(Track)

(<b>index</b>) -[thickness=1]> (Pan)
(<b>index</b>) -[thickness=1]> (Pinch)
(<b>index</b>) -[thickness=1]> (Rotate)
(<b>index</b>) -[thickness=1]> (Swipe)
(<b>index</b>) -[thickness=1]> (Swivel)
(<b>index</b>) -[thickness=1]> (Tap)
(<b>index</b>) -[thickness=1]> (Track)
(Rotate) --> (angularMinus)
(Swivel) --> (angularMinus)

@enduml


' View and edit on https://arkit.pro
]]></script></g></svg>