<?xml version="1.0" encoding="UTF-8" standalone="no"?><svg xmlns="http://www.w3.org/2000/svg" xmlns:xlink="http://www.w3.org/1999/xlink" contentScriptType="application/ecmascript" contentStyleType="text/css" height="68px" preserveAspectRatio="none" style="width:505px;height:68px;" version="1.1" viewBox="0 0 505 68" width="505px" zoomAndPan="magnify"><defs/><g><ellipse cx="33.7487" cy="44.242" fill="#F8F8F8" rx="27.7487" ry="13.242" style="stroke: #383838; stroke-width: 0.5;"/><text fill="#000000" font-family="Tahoma, sans-serif" font-size="12" font-weight="bold" lengthAdjust="spacingAndGlyphs" textLength="35" x="16.2487" y="47.9842">index</text><ellipse cx="476.3492" cy="44.242" fill="#F8F8F8" rx="17.8492" ry="13.242" style="stroke: #383838; stroke-width: 0.5;"/><text fill="#000000" font-family="Tahoma, sans-serif" font-size="12" lengthAdjust="spacingAndGlyphs" textLength="21" x="465.8492" y="47.9842">Pan</text><ellipse cx="420.4203" cy="44.242" fill="#F8F8F8" rx="24.9203" ry="13.242" style="stroke: #383838; stroke-width: 0.5;"/><text fill="#000000" font-family="Tahoma, sans-serif" font-size="12" lengthAdjust="spacingAndGlyphs" textLength="31" x="404.9203" y="47.9842">Pinch</text><ellipse cx="353.663" cy="44.242" fill="#F8F8F8" rx="29.163" ry="13.242" style="stroke: #383838; stroke-width: 0.5;"/><text fill="#000000" font-family="Tahoma, sans-serif" font-size="12" lengthAdjust="spacingAndGlyphs" textLength="37" x="335.163" y="47.9842">Rotate</text><ellipse cx="284.5416" cy="44.242" fill="#F8F8F8" rx="27.0416" ry="13.242" style="stroke: #383838; stroke-width: 0.5;"/><text fill="#000000" font-family="Tahoma, sans-serif" font-size="12" lengthAdjust="spacingAndGlyphs" textLength="34" x="267.5416" y="47.9842">Swipe</text><ellipse cx="215.4558" cy="44.242" fill="#F8F8F8" rx="28.4558" ry="13.242" style="stroke: #383838; stroke-width: 0.5;"/><text fill="#000000" font-family="Tahoma, sans-serif" font-size="12" lengthAdjust="spacingAndGlyphs" textLength="36" x="197.4558" y="47.9842">Swivel</text><ellipse cx="155.3492" cy="44.242" fill="#F8F8F8" rx="17.8492" ry="13.242" style="stroke: #383838; stroke-width: 0.5;"/><text fill="#000000" font-family="Tahoma, sans-serif" font-size="12" lengthAdjust="spacingAndGlyphs" textLength="21" x="144.8492" y="47.9842">Tap</text><ellipse cx="99.4203" cy="44.242" fill="#F8F8F8" rx="24.9203" ry="13.242" style="stroke: #383838; stroke-width: 0.5;"/><text fill="#000000" font-family="Tahoma, sans-serif" font-size="12" lengthAdjust="spacingAndGlyphs" textLength="31" x="83.9203" y="47.9842">Track</text><!--link <b>index</b> to Pan--><path d="M47.5478,32.6609 C55.1818,27.2292 65.0723,21.3063 75,18.5 C114.668,7.2867 407.251,4.4357 446,18.5 C452.184,20.7445 457.991,24.8524 462.844,29.1251 " fill="none" id="&lt;b&gt;index&lt;/b&gt;-Pan" style="stroke: #000000; stroke-width: 1.0;"/><polygon fill="#000000" points="466.684,32.7156,462.841,23.6474,463.0315,29.3011,457.3778,29.4915,466.684,32.7156" style="stroke: #000000; stroke-width: 1.0;"/><!--link <b>index</b> to Pinch--><path d="M47.5478,32.6609 C55.1818,27.2292 65.0723,21.3063 75,18.5 C107.932,9.1909 350.292,8.4328 383,18.5 C390.459,20.7958 397.764,25.1368 403.916,29.5951 " fill="none" id="&lt;b&gt;index&lt;/b&gt;-Pinch" style="stroke: #000000; stroke-width: 1.0;"/><polygon fill="#000000" points="407.978,32.6767,403.2245,24.0509,403.9943,29.6551,398.39,30.4249,407.978,32.6767" style="stroke: #000000; stroke-width: 1.0;"/><!--link <b>index</b> to Rotate--><path d="M47.5478,32.6609 C55.1818,27.2292 65.0723,21.3063 75,18.5 C125.681,4.1736 261.319,4.1736 312,18.5 C319.934,20.7428 327.844,24.9761 334.598,29.3583 " fill="none" id="&lt;b&gt;index&lt;/b&gt;-Rotate" style="stroke: #000000; stroke-width: 1.0;"/><polygon fill="#000000" points="339.075,32.3934,333.87,24.0323,334.9364,29.5877,329.3809,30.6541,339.075,32.3934" style="stroke: #000000; stroke-width: 1.0;"/><!--link <b>index</b> to Swipe--><path d="M47.5478,32.6609 C55.1818,27.2292 65.0723,21.3063 75,18.5 C111.139,8.2841 207.917,8.0866 244,18.5 C251.913,20.7837 259.77,25.1221 266.429,29.5816 " fill="none" id="&lt;b&gt;index&lt;/b&gt;-Swipe" style="stroke: #000000; stroke-width: 1.0;"/><polygon fill="#000000" points="270.833,32.6645,265.7535,24.2265,266.7368,29.7973,261.166,30.7805,270.833,32.6645" style="stroke: #000000; stroke-width: 1.0;"/><!--link <b>index</b> to Swivel--><path d="M47.5478,32.6609 C55.1818,27.2292 65.0723,21.3063 75,18.5 C117.341,6.5311 131.659,6.5311 174,18.5 C182.221,20.824 190.417,25.2853 197.327,29.835 " fill="none" id="&lt;b&gt;index&lt;/b&gt;-Swivel" style="stroke: #000000; stroke-width: 1.0;"/><polygon fill="#000000" points="201.452,32.6609,196.2877,24.2746,197.3271,29.8351,191.7665,30.8745,201.452,32.6609" style="stroke: #000000; stroke-width: 1.0;"/><!--link <b>index</b> to Tap--><path d="M47.5478,32.6609 C55.1818,27.2292 65.0723,21.3063 75,18.5 C96.3843,12.4551 104.1112,10.9182 125,18.5 C131.184,20.7445 136.991,24.8524 141.844,29.1251 " fill="none" id="&lt;b&gt;index&lt;/b&gt;-Tap" style="stroke: #000000; stroke-width: 1.0;"/><polygon fill="#000000" points="145.684,32.7156,141.841,23.6474,142.0315,29.3011,136.3778,29.4915,145.684,32.7156" style="stroke: #000000; stroke-width: 1.0;"/><!--link <b>index</b> to Track--><path d="M61.0859,44 C63.6994,44 66.3129,44 68.9263,44 " fill="none" id="&lt;b&gt;index&lt;/b&gt;-Track" style="stroke: #000000; stroke-width: 1.0;"/><polygon fill="#000000" points="74.2908,44,65.2908,40,69.2908,44,65.2908,48,74.2908,44" style="stroke: #000000; stroke-width: 1.0;"/><script type="text/plantuml"><![CDATA[
@startuml

scale max 1920 width
top to bottom direction

skinparam nodesep 13
skinparam ranksep 25
skinparam monochrome true
skinparam shadowing false
skinparam defaultFontName Tahoma
skinparam defaultFontSize 12
skinparam roundCorner 4
skinparam dpi 150
skinparam arrowColor black
skinparam arrowThickness 0.55
skinparam packageTitleAlignment left

skinparam usecase {
  borderThickness 0.5
}

skinparam rectangle {
  borderThickness 0.5
}

skinparam component {
  borderThickness 1
}


(<b>index</b>)
(Pan)
(Pinch)
(Rotate)
(Swipe)
(Swivel)
(Tap)
(Track)

(<b>index</b>) -[thickness=1]> (Pan)
(<b>index</b>) -[thickness=1]> (Pinch)
(<b>index</b>) -[thickness=1]> (Rotate)
(<b>index</b>) -[thickness=1]> (Swipe)
(<b>index</b>) -[thickness=1]> (Swivel)
(<b>index</b>) -[thickness=1]> (Tap)
(<b>index</b>) -[thickness=1]> (Track)

@enduml


' View and edit on https://arkit.herokuapp.com
]]></script></g></svg>