<?xml version="1.0" encoding="UTF-8" standalone="no"?><svg xmlns="http://www.w3.org/2000/svg" xmlns:xlink="http://www.w3.org/1999/xlink" contentScriptType="application/ecmascript" contentStyleType="text/css" height="184px" preserveAspectRatio="none" style="width:606px;height:184px;" version="1.1" viewBox="0 0 606 184" width="606px" zoomAndPan="magnify"><defs/><g><!--cluster Gestures--><path d="M79.5,43 L141.5,43 A3,3 0 0 1 143.5,45 L150.5,63.4844 L592.5,63.4844 A2,2 0 0 1 594.5,65.4844 L594.5,170 A2,2 0 0 1 592.5,172 L79.5,172 A2,2 0 0 1 77.5,170 L77.5,45 A2,2 0 0 1 79.5,43 " fill="#FFFFFF" style="stroke: #000000; stroke-width: 1.5;"/><line style="stroke: #000000; stroke-width: 1.5;" x1="77.5" x2="150.5" y1="63.4844" y2="63.4844"/><text fill="#000000" font-family="Tahoma, sans-serif" font-size="12" font-weight="bold" lengthAdjust="spacingAndGlyphs" textLength="60" x="81.5" y="57.0059">Gestures</text><ellipse cx="303.6295" cy="142.4259" fill="#F8F8F8" rx="55.1295" ry="13.4259" style="stroke: #383838; stroke-width: 0.5;"/><text fill="#000000" font-family="Tahoma, sans-serif" font-size="12" lengthAdjust="spacingAndGlyphs" textLength="75" x="266.1295" y="146.1681">angularMinus</text><ellipse cx="560.3492" cy="89.242" fill="#F8F8F8" rx="17.8492" ry="13.242" style="stroke: #383838; stroke-width: 0.5;"/><text fill="#000000" font-family="Tahoma, sans-serif" font-size="12" lengthAdjust="spacingAndGlyphs" textLength="21" x="549.8492" y="92.9842">Pan</text><ellipse cx="504.4203" cy="89.242" fill="#F8F8F8" rx="24.9203" ry="13.242" style="stroke: #383838; stroke-width: 0.5;"/><text fill="#000000" font-family="Tahoma, sans-serif" font-size="12" lengthAdjust="spacingAndGlyphs" textLength="31" x="488.9203" y="92.9842">Pinch</text><ellipse cx="440.6274" cy="89.242" fill="#F8F8F8" rx="25.6274" ry="13.242" style="stroke: #383838; stroke-width: 0.5;"/><text fill="#000000" font-family="Tahoma, sans-serif" font-size="12" lengthAdjust="spacingAndGlyphs" textLength="32" x="424.6274" y="92.9842">Press</text><ellipse cx="372.663" cy="89.242" fill="#F8F8F8" rx="29.163" ry="13.242" style="stroke: #383838; stroke-width: 0.5;"/><text fill="#000000" font-family="Tahoma, sans-serif" font-size="12" lengthAdjust="spacingAndGlyphs" textLength="37" x="354.163" y="92.9842">Rotate</text><ellipse cx="303.5416" cy="89.242" fill="#F8F8F8" rx="27.0416" ry="13.242" style="stroke: #383838; stroke-width: 0.5;"/><text fill="#000000" font-family="Tahoma, sans-serif" font-size="12" lengthAdjust="spacingAndGlyphs" textLength="34" x="286.5416" y="92.9842">Swipe</text><ellipse cx="234.4558" cy="89.242" fill="#F8F8F8" rx="28.4558" ry="13.242" style="stroke: #383838; stroke-width: 0.5;"/><text fill="#000000" font-family="Tahoma, sans-serif" font-size="12" lengthAdjust="spacingAndGlyphs" textLength="36" x="216.4558" y="92.9842">Swivel</text><ellipse cx="174.3492" cy="89.242" fill="#F8F8F8" rx="17.8492" ry="13.242" style="stroke: #383838; stroke-width: 0.5;"/><text fill="#000000" font-family="Tahoma, sans-serif" font-size="12" lengthAdjust="spacingAndGlyphs" textLength="21" x="163.8492" y="92.9842">Tap</text><ellipse cx="118.4203" cy="89.242" fill="#F8F8F8" rx="24.9203" ry="13.242" style="stroke: #383838; stroke-width: 0.5;"/><text fill="#000000" font-family="Tahoma, sans-serif" font-size="12" lengthAdjust="spacingAndGlyphs" textLength="31" x="102.9203" y="92.9842">Track</text><ellipse cx="33.7487" cy="89.242" fill="#F8F8F8" rx="27.7487" ry="13.242" style="stroke: #383838; stroke-width: 0.5;"/><text fill="#000000" font-family="Tahoma, sans-serif" font-size="12" font-weight="bold" lengthAdjust="spacingAndGlyphs" textLength="35" x="16.2487" y="92.9842">index</text><!--link <b>index</b> to Pan--><path d="M39.5882,76.131 C48.0694,59.907 65.1311,32.776 89,21.5 C111.153,11.035 509.256,8.464 530,21.5 C546.924,32.135 554.54,54.738 557.913,70.856 " fill="none" id="&lt;b&gt;index&lt;/b&gt;-Pan" style="stroke: #000000; stroke-width: 1.0;"/><polygon fill="#000000" points="558.901,76.047,561.1465,66.4575,557.9655,71.1353,553.2877,67.9543,558.901,76.047" style="stroke: #000000; stroke-width: 1.0;"/><!--link <b>index</b> to Pinch--><path d="M39.5882,76.131 C48.0694,59.907 65.1311,32.776 89,21.5 C107.938,12.554 447.889,10.98 466,21.5 C484.29,32.124 494.617,55.052 499.875,71.229 " fill="none" id="&lt;b&gt;index&lt;/b&gt;-Pinch" style="stroke: #000000; stroke-width: 1.0;"/><polygon fill="#000000" points="501.348,76.011,502.5223,66.2324,499.8766,71.2324,494.8766,68.5867,501.348,76.011" style="stroke: #000000; stroke-width: 1.0;"/><!--link <b>index</b> to Press--><path d="M39.5882,76.131 C48.0694,59.907 65.1311,32.776 89,21.5 C120.446,6.645 371.927,4.032 402,21.5 C420.29,32.124 430.617,55.052 435.875,71.229 " fill="none" id="&lt;b&gt;index&lt;/b&gt;-Press" style="stroke: #000000; stroke-width: 1.0;"/><polygon fill="#000000" points="437.348,76.011,438.5223,66.2324,435.8766,71.2324,430.8766,68.5867,437.348,76.011" style="stroke: #000000; stroke-width: 1.0;"/><!--link <b>index</b> to Rotate--><path d="M39.5882,76.131 C48.0694,59.907 65.1311,32.776 89,21.5 C113.313,10.015 307.53,8.379 331,21.5 C349.825,32.025 361.158,54.975 367.114,71.184 " fill="none" id="&lt;b&gt;index&lt;/b&gt;-Rotate" style="stroke: #000000; stroke-width: 1.0;"/><polygon fill="#000000" points="368.792,75.977,369.5918,66.1607,367.139,71.2581,362.0416,68.8054,368.792,75.977" style="stroke: #000000; stroke-width: 1.0;"/><!--link <b>index</b> to Swipe--><path d="M39.5882,76.131 C48.0694,59.907 65.1311,32.776 89,21.5 C123.962,4.984 229.352,2.449 263,21.5 C281.645,32.057 292.643,55 298.367,71.199 " fill="none" id="&lt;b&gt;index&lt;/b&gt;-Swipe" style="stroke: #000000; stroke-width: 1.0;"/><polygon fill="#000000" points="299.977,75.988,300.9018,66.1827,298.3843,71.2485,293.3185,68.731,299.977,75.988" style="stroke: #000000; stroke-width: 1.0;"/><!--link <b>index</b> to Swivel--><path d="M39.5882,76.131 C48.0694,59.907 65.1311,32.776 89,21.5 C109.897,11.628 172.827,10.222 193,21.5 C211.825,32.025 223.158,54.975 229.114,71.184 " fill="none" id="&lt;b&gt;index&lt;/b&gt;-Swivel" style="stroke: #000000; stroke-width: 1.0;"/><polygon fill="#000000" points="230.792,75.977,231.5918,66.1607,229.139,71.2581,224.0416,68.8054,230.792,75.977" style="stroke: #000000; stroke-width: 1.0;"/><!--link <b>index</b> to Tap--><path d="M39.5882,76.131 C48.0694,59.907 65.1311,32.776 89,21.5 C111.102,11.059 123.303,8.494 144,21.5 C160.924,32.135 168.54,54.738 171.913,70.856 " fill="none" id="&lt;b&gt;index&lt;/b&gt;-Tap" style="stroke: #000000; stroke-width: 1.0;"/><polygon fill="#000000" points="172.901,76.047,175.1465,66.4575,171.9655,71.1353,167.2877,67.9543,172.901,76.047" style="stroke: #000000; stroke-width: 1.0;"/><!--link <b>index</b> to Track--><path d="M61.0586,89 C70.146,89 79.2334,89 88.3208,89 " fill="none" id="&lt;b&gt;index&lt;/b&gt;-Track" style="stroke: #000000; stroke-width: 1.0;"/><polygon fill="#000000" points="93.3694,89,84.3694,85,88.3694,89,84.3694,93,93.3694,89" style="stroke: #000000; stroke-width: 1.0;"/><!--link Rotate to angularMinus--><path d="M358.537,100.4218 C348.664,107.7908 335.263,117.793 324.156,126.0825 " fill="none" id="Rotate-angularMinus" style="stroke: #000000; stroke-width: 0.55; stroke-dasharray: 1.0,3.0;"/><polygon fill="#000000" points="319.868,129.283,329.4733,127.1064,323.8753,126.2928,324.689,120.6947,319.868,129.283" style="stroke: #000000; stroke-width: 0.55;"/><!--link Swivel to angularMinus--><path d="M248.463,100.4218 C258.336,107.7908 271.737,117.793 282.844,126.0825 " fill="none" id="Swivel-angularMinus" style="stroke: #000000; stroke-width: 0.55; stroke-dasharray: 1.0,3.0;"/><polygon fill="#000000" points="287.132,129.283,282.311,120.6947,283.1247,126.2928,277.5267,127.1064,287.132,129.283" style="stroke: #000000; stroke-width: 0.55;"/><script type="text/plantuml"><![CDATA[
@startuml

scale max 1920 width
top to bottom direction

skinparam nodesep 13
skinparam ranksep 27
skinparam monochrome true
skinparam shadowing false
skinparam defaultFontName Tahoma
skinparam defaultFontSize 12
skinparam roundCorner 4
skinparam dpi 150
skinparam arrowColor black
skinparam arrowThickness 0.55
skinparam packageTitleAlignment left

skinparam usecase {
  borderThickness 0.5
}

skinparam rectangle {
  borderThickness 0.5
}

skinparam component {
  borderThickness 1
}


(<b>index</b>)

package "Gestures" {
  (angularMinus)
  (Pan)
  (Pinch)
  (Press)
  (Rotate)
  (Swipe)
  (Swivel)
  (Tap)
  (Track)
}

(<b>index</b>) -[thickness=1]> (Pan)
(<b>index</b>) -[thickness=1]> (Pinch)
(<b>index</b>) -[thickness=1]> (Press)
(<b>index</b>) -[thickness=1]> (Rotate)
(<b>index</b>) -[thickness=1]> (Swipe)
(<b>index</b>) -[thickness=1]> (Swivel)
(<b>index</b>) -[thickness=1]> (Tap)
(<b>index</b>) -[thickness=1]> (Track)
(Rotate) ~~> (angularMinus)
(Swivel) ~~> (angularMinus)

@enduml


' View and edit on https://arkit.pro
]]></script></g></svg>